<?xml version="1.0" encoding="UTF-8" standalone="no"?>
<!-- Created with Inkscape (http://www.inkscape.org/) -->

<svg
   id="svg8"
   version="1.1"
   viewBox="0 0 476.23074 476.28735"
   height="476.28735mm"
   width="476.23074mm"
   xmlns:xlink="http://www.w3.org/1999/xlink"
   xmlns="http://www.w3.org/2000/svg"
   xmlns:svg="http://www.w3.org/2000/svg"
   xmlns:rdf="http://www.w3.org/1999/02/22-rdf-syntax-ns#"
   xmlns:cc="http://creativecommons.org/ns#"
   xmlns:dc="http://purl.org/dc/elements/1.1/">
  <defs
     id="defs2" />
  <metadata
     id="metadata5">
    <rdf:RDF>
      <cc:Work
         rdf:about="">
        <dc:format>image/svg+xml</dc:format>
        <dc:type
           rdf:resource="http://purl.org/dc/dcmitype/StillImage" />
        <dc:title />
      </cc:Work>
    </rdf:RDF>
  </metadata>
  <g
     id="layer1"
     transform="translate(-26.382983,251.03028)">
    <path
       d="m 496.56752,-36.374556 c 0,0 -1.45621,3.424883 -1.45621,3.424883 0,0 1.95188,3.183405 1.95188,3.183405 0,0 3.45789,-0.199411 3.45789,-0.199411 0,0 1.50049,-3.474861 1.50049,-3.474861 0,0 -2.00228,-3.225471 -2.00228,-3.225471 0,0 -3.45177,0.291455 -3.45177,0.291455 m 0.21907,31.1401235 c 0,0 -2.23267,3.7089297 -2.23267,3.7089297 0,0 1.73673,4.0071823 1.73673,4.0071823 0,0 4.02582,0.3553086 4.02582,0.3553086 0,0 2.29727,-3.75806763 2.29727,-3.75806763 0,0 -1.79386,-4.06435047 -1.79386,-4.06435047 0,0 -4.03329,-0.2490025 -4.03329,-0.2490025 m -4.02528,30.8218805 c 0,0 -3.10524,3.829219 -3.10524,3.829219 0,0 1.33194,4.785807 1.33194,4.785807 0,0 4.48888,1.121355 4.48888,1.121355 0,0 3.20857,-3.899077 3.20857,-3.899077 0,0 -1.39764,-4.892228 -1.39764,-4.892228 0,0 -4.52651,-0.945076 -4.52651,-0.945076 m -8.1509,29.896683 c 0,0 -4.02245,3.702191 -4.02245,3.702191 0,0 0.72296,5.600543 0.72296,5.600543 0,0 4.83475,1.967537 4.83475,1.967537 0,0 4.1585,-3.758292 4.1585,-3.758292 0,0 -0.7912,-5.733355 -0.7912,-5.733355 0,0 -4.90256,-1.778624 -4.90256,-1.778624 m -12.06637,28.401094 c 0,0 -4.98426,3.435723 -4.98426,3.435723 0,0 -0.0299,6.233382 -0.0299,6.233382 0,0 4.99776,2.989496 4.99776,2.989496 0,0 5.16821,-3.503 5.16821,-3.503 0,0 -0.0168,-6.427015 -0.0168,-6.427015 0,0 -5.13516,-2.728586 -5.13516,-2.728586 M 456.8482,110.27128 c 0,0 -5.93413,2.96742 -5.93413,2.96742 0,0 -0.94901,6.77705 -0.94901,6.77705 0,0 5.01393,4.03256 5.01393,4.03256 0,0 6.15323,-3.00455 6.15323,-3.00455 0,0 0.91701,-7.0024 0.91701,-7.0024 0,0 -5.20103,-3.77008 -5.20103,-3.77008 m -18.97305,23.91639 c 0,0 -6.83562,2.30045 -6.83562,2.30045 0,0 -2.00043,7.17542 -2.00043,7.17542 0,0 4.84316,5.12624 4.84316,5.12624 0,0 7.08391,-2.29858 7.08391,-2.29858 0,0 1.9899,-7.43016 1.9899,-7.43016 0,0 -5.08092,-4.87337 -5.08092,-4.87337 m -21.85501,21.06658 c 0,0 -7.66061,1.44774 -7.66061,1.44774 0,0 -3.12351,7.36805 -3.12351,7.36805 0,0 4.41232,6.28308 4.41232,6.28308 0,0 7.96906,-1.42348 7.96906,-1.42348 0,0 3.17322,-7.67932 3.17322,-7.67932 0,0 -4.77048,-5.99607 -4.77048,-5.99607 m -24.31338,17.89563 c 0,0 -8.37728,0.4231 -8.37728,0.4231 0,0 -4.35189,7.39505 -4.35189,7.39505 0,0 3.8538,7.35295 3.8538,7.35295 0,0 8.70796,-0.33639 8.70796,-0.33639 0,0 4.43728,-7.73234 4.43728,-7.73234 0,0 -4.26987,-7.10237 -4.26987,-7.10237 m -26.36823,14.48816 c 0,0 -8.90754,-0.777 -8.90754,-0.777 0,0 -5.62498,7.21609 -5.62498,7.21609 0,0 3.10475,8.36693 3.10475,8.36693 0,0 9.29942,0.91216 9.29942,0.91216 0,0 5.79884,-7.60037 5.79884,-7.60037 0,0 -3.67049,-8.11781 -3.67049,-8.11781 m -27.86697,10.83657 c 0,0 -9.3138,-2.08654 -9.3138,-2.08654 0,0 -6.91546,6.81979 -6.91546,6.81979 0,0 2.16452,9.29425 2.16452,9.29425 0,0 9.71523,2.30358 9.71523,2.30358 0,0 7.14586,-7.21929 7.14586,-7.21929 0,0 -2.79635,-9.11179 -2.79635,-9.11179 m -28.93305,7.07148 c 0,0 -9.52857,-3.51087 -9.52857,-3.51087 0,0 -8.19494,6.19689 -8.19494,6.19689 0,0 1.0358,10.10141 1.0358,10.10141 0,0 9.9275,3.81478 9.9275,3.81478 0,0 8.49022,-6.60323 8.49022,-6.60323 0,0 -1.73001,-9.99898 -1.73001,-9.99898 m -29.52196,3.22288 c 0,0 -9.53149,-5.02212 -9.53149,-5.02212 0,0 -9.43239,5.34082 -9.43239,5.34082 0,0 -0.26304,10.75222 -0.26304,10.75222 0,0 9.90997,5.41713 9.90997,5.41713 0,0 9.79525,-5.7438 9.79525,-5.7438 0,0 -0.4783,-10.74425 -0.4783,-10.74425 m -29.70748,-0.67603 c 0,0 -9.24762,-6.5793 -9.24762,-6.5793 0,0 -10.58086,4.24821 -10.58086,4.24821 0,0 -1.69968,11.21602 -1.69968,11.21602 0,0 9.65225,7.0785 9.65225,7.0785 0,0 11.07868,-4.64025 11.07868,-4.64025 0,0 0.79723,-11.32318 0.79723,-11.32318 m -29.28642,-4.56083 c 0,0 -8.78705,-8.15999 -8.78705,-8.15999 0,0 -11.53427,2.94143 -11.53427,2.94143 0,0 -3.38612,11.42504 -3.38612,11.42504 0,0 9.20221,8.79035 9.20221,8.79035 0,0 12.17872,-3.29128 12.17872,-3.29128 0,0 2.32651,-11.70555 2.32651,-11.70555 m -28.44579,-8.38119 c 0,0 -8.06948,-9.73115 -8.06948,-9.73115 0,0 -12.38459,1.40584 -12.38459,1.40584 0,0 -5.04099,11.41167 -5.04099,11.41167 0,0 8.41031,10.47913 8.41031,10.47913 0,0 13.11845,-1.70804 13.11845,-1.70804 0,0 3.9663,-11.85745 3.9663,-11.85745 m -27.12262,-12.08703 c 0,0 -7.08087,-11.2505 -7.08087,-11.2505 0,0 -13.03126,-0.33189 -13.03126,-0.33189 0,0 -6.76618,11.12425 -6.76618,11.12425 0,0 7.32579,12.1109 7.32579,12.1109 0,0 13.85838,0.0973 13.85838,0.0973 0,0 5.69414,-11.75008 5.69414,-11.75008 m -25.32201,-15.6199 c 0,0 -5.81408,-12.66927 -5.81408,-12.66927 0,0 -13.43726,-2.249 -13.43726,-2.249 0,0 -8.52607,10.5345 -8.52607,10.5345 0,0 5.94009,13.63191 5.94009,13.63191 0,0 14.35627,2.10536 14.35627,2.10536 0,0 7.48105,-11.3535 7.48105,-11.3535 M 116.0092,148.46822 c 0,0 -4.21676,-13.87845 -4.21676,-13.87845 0,0 -13.504319,-4.25316 -13.504319,-4.25316 0,0 -10.37401,9.50411 -10.37401,9.50411 0,0 4.309422,15.05317 4.309422,15.05317 0,0 14.628207,4.33491 14.628207,4.33491 0,0 9.15746,-10.76058 9.15746,-10.76058 M 95.651049,126.53991 c 0,0 -2.441572,-14.9464 -2.441572,-14.9464 0,0 -13.305604,-6.40584 -13.305604,-6.40584 0,0 -12.009679,8.28173 -12.009679,8.28173 0,0 2.337846,16.20236 2.337846,16.20236 0,0 14.494816,6.62856 14.494816,6.62856 0,0 10.924193,-9.76041 10.924193,-9.76041 M 80.021375,105.10663 c 0,0 13.188102,6.48688 13.188102,6.48688 0,0 2.334699,15.04187 2.334699,15.04187 0,0 -10.924194,9.76041 -10.924194,9.76041 0,0 -14.387942,-6.72403 -14.387942,-6.72403 0,0 -2.220298,-16.28334 -2.220298,-16.28334 0,0 12.009633,-8.28179 12.009633,-8.28179 M 204.83209,218.34761 c 0.0483,-0.19594 0.3945,-0.27354 0.77293,-0.17342 0.37848,0.10024 0.64614,0.34021 0.59774,0.53608 -0.0483,0.19594 -0.39443,0.27355 -0.77292,0.17342 -0.37848,-0.10024 -0.64608,-0.3402 -0.59775,-0.53608 0,0 0,0 0,0 m 154.96678,-443.89699 c 0,0 -3.59888,0.40602 -3.59888,0.40602 0,0 -2.34219,-2.88662 -2.34219,-2.88662 0,0 1.23462,-3.34963 1.23462,-3.34963 0,0 3.65356,-0.43224 3.65356,-0.43224 0,0 2.36401,2.94411 2.36401,2.94411 0,0 -1.31112,3.31836 -1.31112,3.31836 m -28.59942,-9.73161 c 0,0 -4.10268,1.03891 -4.10268,1.03891 0,0 -3.13594,-2.96248 -3.13594,-2.96248 0,0 0.93387,-4.06951 0.93387,-4.06951 0,0 4.16382,-1.08323 4.16382,-1.08323 0,0 3.16864,3.03117 3.16864,3.03117 0,0 -1.02771,4.04514 -1.02771,4.04514 m -29.56161,-5.8213 c 0,0 -4.46658,1.80872 -4.46658,1.80872 0,0 -3.98394,-2.86718 -3.98394,-2.86718 0,0 0.46426,-4.7561 0.46426,-4.7561 0,0 4.55928,-1.8765 4.55928,-1.8765 0,0 4.05749,2.95557 4.05749,2.95557 0,0 -0.63051,4.73549 -0.63051,4.73549 m -29.97152,-1.85298 c 0,0 -4.78126,2.68023 -4.78126,2.68023 0,0 -4.79379,-2.59099 -4.79379,-2.59099 0,0 -0.1712,-5.3749 -0.1712,-5.3749 0,0 4.87565,-2.78935 4.87565,-2.78935 0,0 4.88922,2.69724 4.88922,2.69724 0,0 -0.0184,5.37777 -0.0184,5.37777 m -29.95139,2.06902 c 0,0 -4.8501,3.64176 -4.8501,3.64176 0,0 -5.65611,-2.15324 -5.65611,-2.15324 0,0 -0.95992,-5.89218 -0.95992,-5.89218 0,0 4.97417,-3.78379 4.97417,-3.78379 0,0 5.81051,2.25389 5.81051,2.25389 0,0 0.68145,5.93356 0.68145,5.93356 m -29.43369,5.91963 c 0,0 -4.74373,4.66124 -4.74373,4.66124 0,0 -6.4765,-1.50591 -6.4765,-1.50591 0,0 -1.87978,-6.2782 -1.87978,-6.2782 0,0 4.89122,-4.8628 4.89122,-4.8628 0,0 6.69945,1.60122 6.69945,1.60122 0,0 1.50934,6.38445 1.50934,6.38445 m -28.39596,9.72874 c 0,0 -4.56584,5.76268 -4.56584,5.76268 0,0 -7.13826,-0.69793 -7.13826,-0.69793 0,0 -2.90549,-6.50912 -2.90549,-6.50912 0,0 4.68866,-6.01897 4.68866,-6.01897 0,0 7.39762,0.7857 7.39762,0.7857 0,0 2.52331,6.67764 2.52331,6.67764 m -26.92133,13.40814 c 0,0 -4.11689,6.85578 -4.11689,6.85578 0,0 -7.75512,0.31313 -7.75512,0.31313 0,0 -4.01094,-6.56516 -4.01094,-6.56516 0,0 4.20152,-7.16594 4.20152,-7.16594 0,0 8.05455,-0.23805 8.05455,-0.23805 0,0 3.62688,6.80024 3.62688,6.80024 m -24.98758,16.88507 c 0,0 -3.38742,7.86426 -3.38742,7.86426 0,0 -8.29899,1.54001 -8.29899,1.54001 0,0 -5.17055,-6.42898 -5.17055,-6.42898 0,0 3.42546,-8.21877 3.42546,-8.21877 0,0 8.63749,-1.49093 8.63749,-1.49093 0,0 4.79401,6.73441 4.79401,6.73441 m -22.61885,20.08989 c 0,0 -2.52582,8.85785 -2.52582,8.85785 0,0 -8.545269,2.82152 -8.545269,2.82152 0,0 -6.427515,-6.00515 -6.427515,-6.00515 0,0 2.539431,-9.29342 2.539431,-9.29342 0,0 8.960873,-2.84438 8.960873,-2.84438 0,0 5.9983,6.46358 5.9983,6.46358 m -19.839217,22.96683 c 0,0 -1.455791,9.74683 -1.455791,9.74683 0,0 -8.61466,4.24657 -8.61466,4.24657 0,0 -7.608807,-5.41864 -7.608807,-5.41864 0,0 1.393241,-10.22613 1.393241,-10.22613 0,0 9.073428,-4.31981 9.073428,-4.31981 0,0 7.212589,5.97118 7.212589,5.97118 M 72.84507,-126.4235 c 0,0 -0.116522,10.38303 -0.116522,10.38303 0,0 -8.465479,5.81074 -8.465479,5.81074 0,0 -8.807565,-4.47817 -8.807565,-4.47817 0,0 -0.01187,-10.95389 -0.01187,-10.95389 0,0 8.995697,-6.00262 8.995697,-6.00262 0,0 8.405754,5.24091 8.405754,5.24091 m -13.123823,27.466172 c 0,0 1.326081,10.979151 1.326081,10.979151 0,0 -7.995701,7.306776 -7.995701,7.306776 0,0 -9.90385,-3.251021 -9.90385,-3.251021 0,0 -1.567697,-11.579473 -1.567697,-11.579473 0,0 8.550213,-7.591435 8.550213,-7.591435 0,0 9.590954,4.136002 9.590954,4.136002 m -9.32275,29.087339 c 0,0 2.961208,11.276286 2.961208,11.276286 0,0 -7.261673,8.856335 -7.261673,8.856335 0,0 -10.814889,-1.884536 -10.814889,-1.884536 0,0 -3.33763,-11.885594 -3.33763,-11.885594 0,0 7.844509,-9.241685 7.844509,-9.241685 0,0 10.608475,2.879194 10.608475,2.879194 m -5.268029,30.096434 c 0,0 4.732601,11.134097 4.732601,11.134097 0,0 -6.26813,10.501018 -6.26813,10.501018 0,0 -11.540985,-0.283932 -11.540985,-0.283932 0,0 -5.233525,-11.721273 -5.233525,-11.721273 0,0 6.842125,-11.00155 6.842125,-11.00155 0,0 11.467914,1.37164 11.467914,1.37164 m -1.105781,30.507961 c 0,0 6.521146,10.8277484 6.521146,10.8277484 0,0 -4.988659,11.8140446 -4.988659,11.8140446 0,0 -12.014561,1.662377 -12.014561,1.662377 0,0 -7.159635,-11.4393041 -7.159635,-11.4393041 0,0 5.525267,-12.5049522 5.525267,-12.5049522 0,0 12.116442,-0.3599137 12.116442,-0.3599137 m 3.050712,30.414007 c 0,0 8.311365,10.156666 8.311365,10.156666 0,0 -3.440912,13.006215 -3.440912,13.006215 0,0 -12.226949,3.549779 -12.226949,3.549779 0,0 -9.103375,-10.754351 -9.103375,-10.754351 0,0 3.920519,-13.882835 3.920519,-13.882835 0,0 12.539352,-2.075474 12.539352,-2.075474 m 7.121349,29.473874 c 0,0 10.095892,9.33873 10.095892,9.33873 0,0 -1.709389,13.883733 -1.709389,13.883733 0,0 -12.094696,5.666921 -12.094696,5.666921 0,0 -11.026285,-9.814835 -11.026285,-9.814835 0,0 2.097478,-14.862617 2.097478,-14.862617 0,0 12.637,-4.211932 12.637,-4.211932 m 11.074193,28.193985 c 0,0 11.767089,8.134204 11.767089,8.134204 0,0 0.226267,14.567904 0.226267,14.567904 0,0 -11.717129,7.65041 -11.717129,7.65041 0,0 -12.820309,-8.46144 -12.820309,-8.46144 0,0 0.0709,-15.651575 0.0709,-15.651575 0,0 12.473174,-6.239503 12.473174,-6.239503 m 14.750581,26.290358 c 0,0 13.188101,6.48688 13.188101,6.48688 0,0 2.334711,15.04187 2.334711,15.04187 0,0 -10.924194,9.76041 -10.924194,9.76041 0,0 -14.387953,-6.72403 -14.387953,-6.72403 0,0 -2.220298,-16.2834 -2.220298,-16.2834 0,0 12.009633,-8.28173 12.009633,-8.28173"
       style="opacity:1;vector-effect:none;fill:#8080B0;fill-opacity:0.784314;stroke:none;stroke-width:2.69738;stroke-linecap:butt;stroke-linejoin:miter;stroke-miterlimit:4;stroke-dasharray:none;stroke-dashoffset:0;stroke-opacity:1"
       id="path9199" />
    <use
       x="0"
       y="0"
       xlink:href="#path9199"
       id="use15176"
       style="opacity:1;vector-effect:none;fill:#A0A0D0;fill-opacity:1;stroke:#A0A0D0;stroke-width:11.8833;stroke-linecap:butt;stroke-linejoin:miter;stroke-miterlimit:4;stroke-dasharray:none;stroke-dashoffset:0;stroke-opacity:1"
       width="100%"
       height="100%"
       transform="translate(-1.0778109e-5,1.8085207e-5)" />
    <use
       x="0"
       y="0"
       xlink:href="#path9199"
       transform="matrix(0.6397269,0.66225278,-0.61796722,0.6397269,87.328078,-179.80742)"
       id="use15178"
       style="fill:#A0A0D0;stroke:#A0A0D0;stroke-width:11.8833"
       width="100%"
       height="100%" />
    <use
       x="0"
       y="0"
       xlink:href="#path9199"
       transform="matrix(0,0.84456718,-0.78809006,0,254.34251,-236.2732)"
       id="use15180"
       style="fill:#A0A0D0;stroke:#A0A0D0;stroke-width:11.8833"
       width="100%"
       height="100%" />
    <use
       x="0"
       y="0"
       xlink:href="#path9199"
       transform="matrix(-0.51841335,0.53666757,-0.50078003,-0.51841335,395.16423,-161.51485)"
       id="use15182"
       style="fill:#A0A0D0;stroke:#A0A0D0;stroke-width:11.8833"
       width="100%"
       height="100%" />
    <use
       x="0"
       y="0"
       xlink:href="#path9199"
       transform="matrix(-0.65639166,0,0,-0.65639166,438.11274,-21.345271)"
       id="use15184"
       style="fill:#A0A0D0;stroke:#A0A0D0;stroke-width:11.8833"
       width="100%"
       height="100%" />
    <use
       x="0"
       y="0"
       xlink:href="#path9199"
       transform="matrix(-0.4138942,-0.42846812,0.399816,-0.4138942,379.12494,95.108816)"
       id="use15186"
       style="fill:#A0A0D0;stroke:#A0A0D0;stroke-width:11.8833"
       width="100%"
       height="100%" />
    <use
       x="0"
       y="0"
       xlink:href="#path9199"
       transform="matrix(0,-0.53804027,0.50206094,0,270.96818,129.42418)"
       id="use15188"
       style="fill:#A0A0D0;stroke:#A0A0D0;stroke-width:11.8833"
       width="100%"
       height="100%" />
    <use
       x="0"
       y="0"
       xlink:href="#path9199"
       transform="matrix(0.32482347,-0.33626106,0.31377492,0.32482347,182.62658,80.239759)"
       id="use15190"
       style="fill:#A0A0D0;stroke:#A0A0D0;stroke-width:11.8833"
       width="100%"
       height="100%" />
    <use
       x="0"
       y="0"
       xlink:href="#path9199"
       transform="matrix(0.40399197,0,0,0.40399197,157.6431,-7.6805385)"
       id="use15192"
       style="fill:#A0A0D0;stroke:#A0A0D0;stroke-width:11.8833"
       width="100%"
       height="100%" />
    <use
       x="0"
       y="0"
       xlink:href="#path9199"
       transform="matrix(0.24987289,0.25867134,-0.24137371,0.24987289,195.29687,-78.084708)"
       id="use15194"
       style="fill:#A0A0D0;stroke:#A0A0D0;stroke-width:11.8833"
       width="100%"
       height="100%" />
    <use
       x="0"
       y="0"
       xlink:href="#path9199"
       transform="matrix(0,0.31810411,-0.29683214,0,260.6731,-97.024614)"
       id="use15196"
       style="fill:#A0A0D0;stroke:#A0A0D0;stroke-width:11.8833"
       width="100%"
       height="100%" />
    <use
       x="0"
       y="0"
       xlink:href="#path9199"
       transform="matrix(-0.187733,0.1943434,-0.18134745,-0.187733,311.81638,-66.709359)"
       id="use15198"
       style="fill:#A0A0D0;stroke:#A0A0D0;stroke-width:11.8833"
       width="100%"
       height="100%" />
    <use
       x="0"
       y="0"
       xlink:href="#path9199"
       transform="matrix(-0.22777794,0,0,-0.22777794,324.74525,-15.8219)"
       id="use15200"
       style="fill:#A0A0D0;stroke:#A0A0D0;stroke-width:11.8833"
       width="100%"
       height="100%" />
    <use
       x="0"
       y="0"
       xlink:href="#path9199"
       transform="matrix(-0.1371145,-0.14194254,0.13245068,-0.1371145,302.47171,22.890002)"
       id="use15202"
       style="fill:#A0A0D0;stroke:#A0A0D0;stroke-width:11.8833"
       width="100%"
       height="100%" />
    <use
       x="0"
       y="0"
       xlink:href="#path9199"
       transform="matrix(0,-0.16942809,0.15809825,0,266.53568,31.926873)"
       id="use15204"
       style="fill:#A0A0D0;stroke:#A0A0D0;stroke-width:11.8833"
       width="100%"
       height="100%" />
    <use
       x="0"
       y="0"
       xlink:href="#path9199"
       transform="matrix(0.09674979,-0.10015652,0.09345894,0.09674979,240.11252,14.851373)"
       id="use15206"
       style="fill:#A0A0D0;stroke:#A0A0D0;stroke-width:11.8833"
       width="100%"
       height="100%" />
    <use
       x="0"
       y="0"
       xlink:href="#path9199"
       transform="matrix(0.11316942,0,0,0.11316942,234.56522,-11.428273)"
       id="use15208"
       style="fill:#A0A0D0;stroke:#A0A0D0;stroke-width:11.8833"
       width="100%"
       height="100%" />
    <use
       x="0"
       y="0"
       xlink:href="#path9199"
       transform="matrix(0.06539483,0.06769749,-0.06317049,0.06539483,246.38746,-29.949757)"
       id="use15210"
       style="fill:#A0A0D0;stroke:#A0A0D0;stroke-width:11.8833"
       width="100%"
       height="100%" />
    <use
       x="0"
       y="0"
       xlink:href="#path9199"
       transform="matrix(0,0.07717417,-0.07201345,0,263.57023,-33.299054)"
       id="use15212"
       style="fill:#A0A0D0;stroke:#A0A0D0;stroke-width:11.8833"
       width="100%"
       height="100%" />
    <use
       x="0"
       y="0"
       xlink:href="#path9199"
       transform="matrix(-0.04183136,0.04330431,-0.04040851,-0.04183136,275.0419,-24.879612)"
       id="use15214"
       style="fill:#A0A0D0;stroke:#A0A0D0;stroke-width:11.8833"
       width="100%"
       height="100%" />
    <use
       x="0"
       y="0"
       xlink:href="#path9199"
       transform="matrix(-0.04610116,0,0,-0.04610116,276.69195,-13.480686)"
       id="use15216"
       style="fill:#A0A0D0;stroke:#A0A0D0;stroke-width:11.8833"
       width="100%"
       height="100%" />
    <use
       x="0"
       y="0"
       xlink:href="#path9199"
       transform="matrix(-0.02486966,-0.02574536,0.02402374,-0.02486966,271.38588,-6.3975)"
       id="use15218"
       style="fill:#A0A0D0;stroke:#A0A0D0;stroke-width:11.8833"
       width="100%"
       height="100%" />
    <use
       x="0"
       y="0"
       xlink:href="#path9199"
       transform="matrix(0,-0.02708616,0.02527488,0,264.82405,-5.7223605)"
       id="use15220"
       style="fill:#A0A0D0;stroke:#A0A0D0;stroke-width:11.8833"
       width="100%"
       height="100%" />
    <use
       x="0"
       y="0"
       xlink:href="#path9199"
       transform="matrix(0.0133521,-0.01382225,0.01289794,0.0133521,261.13293,-9.0586183)"
       id="use15222"
       style="fill:#A0A0D0;stroke:#A0A0D0;stroke-width:11.8833"
       width="100%"
       height="100%" />
    <use
       x="0"
       y="0"
       xlink:href="#path9199"
       transform="matrix(0.01312814,0,0,0.01312814,261.02591,-12.717414)"
       id="use15224"
       style="fill:#A0A0D0;stroke:#A0A0D0;stroke-width:11.8833"
       width="100%"
       height="100%" />
    <use
       x="0"
       y="0"
       xlink:href="#path9199"
       transform="matrix(0.0061578,0.00637463,-0.00594835,0.0061578,262.79299,-14.493335)"
       id="use15226"
       style="fill:#A0A0D0;stroke:#A0A0D0;stroke-width:11.8833"
       width="100%"
       height="100%" />
    <use
       x="0"
       y="0"
       xlink:href="#path9199"
       transform="matrix(0,0.0056265,-0.00525025,0,264.43066,-14.374798)"
       id="use15228"
       style="fill:#A0A0D0;stroke:#A0A0D0;stroke-width:11.8833"
       width="100%"
       height="100%" />
    <use
       x="0"
       y="0"
       xlink:href="#path9199"
       transform="matrix(-0.00220923,0.00228702,-0.00213409,-0.00220923,265.05511,-13.519989)"
       id="use15230"
       style="fill:#A0A0D0;stroke:#A0A0D0;stroke-width:11.8833"
       width="100%"
       height="100%" />
    <use
       x="0"
       y="0"
       xlink:href="#path9199"
       transform="matrix(-0.00159744,0,0,-0.00159744,264.92087,-12.907205)"
       id="use15232"
       style="fill:#A0A0D0;stroke:#A0A0D0;stroke-width:11.8833"
       width="100%"
       height="100%" />
    <use
       x="0"
       y="0"
       xlink:href="#path9199"
       transform="matrix(-4.8219974e-4,-4.9917882e-4,4.6579819e-4,-4.8219974e-4,264.63191,-12.760794)"
       id="use15234"
       style="fill:#A0A0D0;stroke:#A0A0D0;stroke-width:11.8833"
       width="100%"
       height="100%" />
    <use
       x="0"
       y="0"
       xlink:href="#path9199"
       transform="matrix(0,-2.2000925e-4,2.0529699e-4,0,264.50096,-12.828451)"
       id="use15236"
       style="fill:#A0A0D0;stroke:#A0A0D0;stroke-width:11.8833"
       width="100%"
       height="100%" />
    <use
       x="0"
       y="0"
       xlink:href="#path9199"
       transform="matrix(2.3392167e-5,-2.4215845e-5,2.2596505e-5,2.3392167e-5,264.49251,-12.879897)"
       id="use15238"
       style="fill:#A0A0D0;stroke:#A0A0D0;stroke-width:11.8833"
       width="100%"
       height="100%" />
  </g>
</svg>
